<?xml version="1.0" encoding="UTF-8" standalone="no"?>
<svg
   width="512"
   height="512"
   viewBox="0 0 512 512"
   version="1.1"
   id="svg2"
   sodipodi:docname="logo.svg"
   inkscape:version="1.4.2 (ebf0e940d0, 2025-05-08)"
   inkscape:export-filename="logo.png"
   inkscape:export-xdpi="2048"
   inkscape:export-ydpi="2048"
   xmlns:inkscape="http://www.inkscape.org/namespaces/inkscape"
   xmlns:sodipodi="http://sodipodi.sourceforge.net/DTD/sodipodi-0.dtd"
   xmlns="http://www.w3.org/2000/svg"
   xmlns:svg="http://www.w3.org/2000/svg">
  <defs
     id="defs2" />
  <sodipodi:namedview
     id="namedview2"
     pagecolor="#ffffff"
     bordercolor="#111111"
     borderopacity="1"
     inkscape:showpageshadow="0"
     inkscape:pageopacity="0"
     inkscape:pagecheckerboard="1"
     inkscape:deskcolor="#d1d1d1"
     inkscape:zoom="2"
     inkscape:cx="114"
     inkscape:cy="158.25"
     inkscape:window-width="3840"
     inkscape:window-height="2126"
     inkscape:window-x="2160"
     inkscape:window-y="2194"
     inkscape:window-maximized="1"
     inkscape:current-layer="g2" />
  <g
     fill="none"
     stroke="currentColor"
     stroke-linecap="round"
     stroke-linejoin="round"
     stroke-width="1.5"
     id="g2">
    <path
       d="m 447.76523,291.03986 c 10.92171,-2.97926 16.38257,-4.47944 18.53762,-7.31078 2.15507,-2.85247 2.15507,-7.41641 2.15507,-16.56544 v -40.86426 c 0,-9.14903 0,-13.73411 -2.15507,-16.56545 -2.15505,-2.83134 -7.61591,-4.33152 -18.53762,-7.28964 -40.79956,-11.11407 -66.34635,-54.1969 -55.82216,-95.14567 2.90828,-11.26197 4.35196,-16.903525 2.97105,-20.199705 -1.38091,-3.296193 -5.35624,-5.578171 -13.286,-10.120992 L 345.53621,56.271118 c -7.78328,-4.437171 -11.67494,-6.676887 -15.16906,-6.212043 -3.49411,0.464844 -7.44851,4.437171 -15.33643,12.402959 -30.52643,30.743272 -81.03417,30.743272 -111.58152,0 -7.8879,-7.944653 -11.8214,-11.916978 -15.31552,-12.402959 -3.49411,-0.464844 -7.38576,1.753736 -15.16906,6.233169 l -36.0919,20.685679 c -7.95067,4.542821 -11.92602,6.824799 -13.286,10.142117 -1.38091,3.275055 0.0628,8.91661 2.95012,20.17858 10.52418,40.94877 -15.0226,84.0316 -55.84307,95.14567 -10.92172,2.95812 -16.382581,4.43717 -18.537633,7.28964 -2.155053,2.85246 -2.155053,7.41642 -2.155053,16.56545 v 40.86426 c 0,9.14903 0,13.7341 2.155053,16.56544 2.155052,2.83134 7.615913,4.33152 18.537633,7.31078 40.79955,11.11405 66.34634,54.1969 55.82215,95.12453 -2.90828,11.26197 -4.35195,16.90352 -2.97105,20.19971 1.38091,3.29619 5.35625,5.57816 13.28601,10.1421 l 36.0919,20.66456 c 7.78331,4.47943 11.67494,6.69802 15.16906,6.23317 3.49411,-0.46485 7.44854,-4.43717 15.33644,-12.40295 30.54735,-30.78553 81.09693,-30.78553 111.64428,0 7.88791,7.94466 11.8214,11.91698 15.31552,12.40295 3.49411,0.46485 7.38577,-1.75374 15.18998,-6.23317 l 36.07098,-20.68568 c 7.95069,-4.54282 11.92602,-6.82479 13.28599,-10.14212 1.36,-3.31731 -0.0627,-8.9166 -2.95011,-20.17857 -10.54511,-40.92763 14.98075,-84.01048 55.78031,-95.12453"
       id="path2"
       style="fill:#42b883;fill-opacity:1;stroke-width:20;stroke-dasharray:none" />
    <path
       d="m 338.03417,247.36355 a 74.66655,74.66655 0 1 1 -149.3331,0 74.66655,74.66655 0 0 1 149.3331,0"
       id="path1"
       style="fill:#35495e;fill-opacity:1;stroke-width:20;stroke-dasharray:none" />
  </g>
</svg>
